<svg xmlns="http://www.w3.org/2000/svg" version="1.1" xmlns:xlink="http://www.w3.org/1999/xlink" xmlns:svgjs="http://svgjs.dev/svgjs" viewBox="0 0 800 800"><defs><linearGradient x1="50%" y1="0%" x2="50%" y2="100%" id="ccchaos-grad"><stop stop-color="hsl(206, 75%, 49%)" stop-opacity="1" offset="0%"></stop><stop stop-color="hsl(331, 90%, 56%)" stop-opacity="1" offset="100%"></stop></linearGradient></defs><g stroke-width="2" stroke="url(#ccchaos-grad)" fill="none" stroke-linecap="round"><path d="M378.3 107.2C387.66 105.2 396.96 103.95 406.18 103.47 415.42 103.3 424.59 103.94 433.69 105.38 442.83 107.17 451.92 109.75 460.97 113.08 470.09 116.73 479.2 121.08 488.31 126.07 497.53 131.3 506.78 137.1 516.07 143.4 525.51 149.83 535.01 156.68 544.58 163.88 554.31 171.12 564.11 178.64 573.94 186.39 583.92 194.1 593.9 201.99 603.83 210.03 613.82 217.97 623.67 226.04 633.29 234.23 642.82 242.28 651.99 250.45 660.68 258.72 669.06 266.86 676.8 275.13 683.75 283.53 690.19 291.81 695.68 300.25 700.13 308.84 703.87 317.34 706.47 326.03 707.84 334.91 708.47 343.73 707.89 352.77 706.1 362.02 703.7 371.24 700.24 380.69 695.81 390.38 691.09 400.06 685.65 409.99 679.65 420.16 673.81 430.33 667.86 440.51 661.95 450.67 656.6 460.83 651.5 470.96 646.75 481.02 642.75 491.07 639.16 501.03 635.97 510.85 633.56 520.62 631.47 530.22 629.65 539.58 628.45 548.84 627.36 557.8 626.29 566.39 625.6 574.82 624.74 582.82 623.62 590.3 622.64 597.54 621.23 604.2 619.35 610.21 616.14 618.42 606.41 630.76 599.78 634.81 594.92 637 589.41 638.51 583.3 639.35 576.98 640.11 570.08 640.36 562.67 640.17 555.09 640.15 547.04 639.9 538.58 639.53 530.02 639.64 521.09 639.84 511.85 640.24 502.56 641.39 493 642.91 483.22 644.85 473.42 647.66 463.43 650.94 453.28 654.66 443.13 659.17 432.84 663.98 422.44 668.98 412.04 674.45 401.77 679.67 391.66 684.49 381.54 689.29 371.57 693.37 361.75 696.6 351.92 699.39 342.23 701.11 332.7 701.7 323.14 701.62 313.73 700.32 304.48 697.84 295.19 694.63 286.04 690.28 277.07 684.89 268.06 678.88 259.21 671.97 250.55 664.27 241.86 656.16 233.37 647.43 225.11 638.21 216.84 628.78 208.82 619.02 201.07 609.03 193.36 599.01 185.95 588.86 178.89 578.66 171.9 568.54 165.29 558.43 159.09 548.36 153.02 538.42 147.38 528.53 142.23 518.72 137.23 509.03 132.73 499.4 128.77 489.82 124.97 480.35 121.72 470.89 119.04 461.45 116.52 452.08 114.56 442.7 113.18 433.29 111.94 423.93 111.27 414.51 111.17 405.06 111.16 395.63 111.7 386.14 112.8 376.61 113.93 367.08 115.55 357.74 117.62 348.61 119.66 339.48 122.11 330.56 124.93 321.89 127.67 313.22 130.75 304.82 134.15 296.69 137.4 288.59 140.96 280.79 144.79 273.32 148.45 265.88 152.38 258.78 156.56 252.04 160.57 245.33 164.83 238.98 169.34 233.01 173.7 227.05 178.32 221.44 183.2 216.21 187.96 210.94 193 206 198.31 201.4 203.55 196.69 209.09 192.27 214.92 188.11 220.71 183.78 226.82 179.66 233.23 175.73 239.63 171.55 246.35 167.52 253.36 163.62 260.39 159.43 267.71 155.33 275.32 151.34 282.94 147.05 290.84 142.86 299 138.81 307.16 134.51 315.57 130.39 324.2 126.51 332.83 122.48 341.68 118.77 350.7 115.46 359.73 112.17 368.93 109.38 378.29 107.2" stroke-dasharray="8 6" transform="rotate(0, 400, 400)" opacity="0.95"></path><path d="M379.69 118C388.72 116.02 397.72 114.76 406.68 114.23 415.65 113.99 424.6 114.52 433.5 115.82 442.44 117.45 451.36 119.83 460.27 122.93 469.24 126.35 478.23 130.44 487.22 135.16 496.32 140.11 505.46 145.63 514.63 151.63 523.93 157.79 533.28 164.37 542.68 171.31 552.2 178.31 561.77 185.6 571.33 193.14 580.99 200.66 590.61 208.38 600.14 216.26 609.67 224.06 619.03 232.01 628.11 240.08 637.06 248.04 645.62 256.12 653.68 264.3 661.42 272.37 668.51 280.55 674.83 288.85 680.66 297.06 685.58 305.39 689.5 313.87 692.79 322.26 694.99 330.82 696.06 339.54 696.47 348.21 695.77 357.06 693.95 366.09 691.6 375.1 688.27 384.31 684.04 393.72 679.57 403.12 674.43 412.74 668.75 422.55 663.22 432.36 657.55 442.15 651.9 451.88 646.75 461.61 641.79 471.28 637.11 480.84 633.11 490.39 629.45 499.81 626.14 509.05 623.54 518.25 621.22 527.24 619.14 535.95 617.65 544.57 616.27 552.87 614.92 560.78 613.96 568.53 612.87 575.84 611.57 582.63 609.7 592.22 603.96 607.98 599.8 614 594.88 618.96 581.81 625.22 573.68 626.71 567.89 627.49 561.55 627.83 554.7 627.8 547.71 627.98 540.26 627.99 532.39 627.9 524.41 628.29 516.07 628.78 507.4 629.46 498.67 630.84 489.65 632.55 480.39 634.62 471.11 637.5 461.6 640.78 451.92 644.43 442.22 648.8 432.36 653.42 422.36 658.17 412.36 663.37 402.46 668.31 392.69 672.87 382.9 677.44 373.24 681.34 363.71 684.45 354.17 687.2 344.75 688.97 335.47 689.7 326.17 689.84 317 688.86 307.98 686.79 298.93 684.05 290.02 680.25 281.27 675.46 272.5 670.1 263.89 663.85 255.46 656.83 247.02 649.39 238.78 641.32 230.76 632.74 222.75 623.93 214.99 614.75 207.5 605.28 200.05 595.75 192.91 586.03 186.11 576.22 179.4 566.45 173.05 556.63 167.11 546.82 161.29 537.11 155.91 527.42 150.99 517.78 146.22 508.25 141.95 498.76 138.19 489.32 134.59 479.98 131.52 470.66 129 461.37 126.64 452.15 124.83 442.94 123.58 433.74 122.46 424.57 121.89 415.39 121.87 406.2 121.95 397.03 122.56 387.84 123.7 378.65 124.88 369.47 126.52 360.49 128.61 351.74 130.65 342.99 133.1 334.48 135.9 326.22 138.61 317.97 141.66 309.98 145.01 302.28 148.22 294.59 151.72 287.2 155.48 280.14 159.08 273.09 162.94 266.37 167.02 259.99 170.95 253.62 175.12 247.59 179.51 241.91 183.76 236.22 188.26 230.86 192.99 225.83 197.61 220.75 202.48 215.97 207.62 211.48 212.66 206.88 217.99 202.53 223.59 198.42 229.14 194.12 234.98 190.01 241.11 186.08 247.22 181.9 253.62 177.85 260.31 173.93 266.99 169.72 273.96 165.61 281.21 161.61 288.45 157.33 295.97 153.16 303.74 149.13 311.51 144.87 319.53 140.8 327.78 136.97 336.02 133.01 344.48 129.37 353.14 126.12 361.8 122.89 370.65 120.16 379.68 118" stroke-dasharray="10 6" transform="rotate(4.04, 400, 400)" opacity="0.63"></path><path d="M381.72 128.8C390.43 126.84 399.15 125.57 407.84 125 416.55 124.69 425.26 125.13 433.95 126.28 442.68 127.75 451.42 129.94 460.16 132.82 468.95 136 477.78 139.83 486.62 144.26 495.55 148.94 504.52 154.16 513.52 159.87 522.62 165.73 531.77 172.02 540.93 178.68 550.19 185.41 559.45 192.45 568.68 199.74 577.97 207.04 587.18 214.55 596.25 222.24 605.29 229.87 614.12 237.66 622.63 245.57 630.99 253.41 638.93 261.36 646.36 269.41 653.47 277.38 659.93 285.45 665.64 293.63 670.88 301.73 675.27 309.95 678.7 318.28 681.56 326.55 683.42 334.96 684.22 343.5 684.44 352 683.63 360.65 681.8 369.46 679.51 378.25 676.31 387.2 672.3 396.32 668.07 405.43 663.21 414.71 657.85 424.15 652.62 433.6 647.24 442.98 641.85 452.27 636.89 461.56 632.08 470.75 627.49 479.81 623.51 488.84 619.81 497.72 616.41 506.39 613.64 515.01 611.12 523.39 608.82 531.48 607.07 539.47 605.42 547.12 603.81 554.38 602.58 561.49 601.26 568.15 599.77 574.31 597.69 582.99 591.89 597.16 587.9 602.54 583.29 606.99 571.2 612.71 563.7 614.16 558.39 614.99 552.55 615.45 546.22 615.61 539.77 616 532.87 616.25 525.55 616.45 518.14 617.1 510.36 617.86 502.23 618.8 494.05 620.38 485.57 622.25 476.82 624.45 468.05 627.37 459.03 630.63 449.81 634.21 440.58 638.42 431.16 642.85 421.58 647.37 412 652.29 402.48 656.97 393.06 661.27 383.64 665.6 374.3 669.32 365.08 672.31 355.85 675 346.73 676.8 337.72 677.65 328.71 677.98 319.81 677.29 311.04 675.58 302.26 673.28 293.61 669.99 285.12 665.76 276.61 661 268.26 655.39 260.1 649.03 251.93 642.26 243.96 634.86 236.21 626.94 228.48 618.76 221 610.17 213.79 601.28 206.63 592.27 199.78 583.05 193.26 573.69 186.83 564.32 180.76 554.87 175.09 545.39 169.54 535.97 164.41 526.54 159.74 517.15 155.22 507.83 151.17 498.54 147.62 489.31 144.23 480.14 141.35 471 139 461.92 136.8 452.88 135.13 443.87 134 434.89 133 425.94 132.53 417 132.6 408.09 132.75 399.19 133.42 390.3 134.6 381.44 135.82 372.58 137.48 363.95 139.57 355.57 141.62 347.19 144.05 339.05 146.83 331.18 149.52 323.31 152.53 315.71 155.83 308.4 159 301.09 162.44 294.07 166.13 287.37 169.67 280.67 173.45 274.29 177.45 268.23 181.3 262.16 185.38 256.41 189.67 250.98 193.82 245.52 198.2 240.36 202.81 235.51 207.29 230.58 212.02 225.92 216.98 221.53 221.86 217.01 226.99 212.72 232.39 208.63 237.71 204.36 243.32 200.26 249.19 196.31 255.03 192.13 261.14 188.06 267.53 184.12 273.9 179.91 280.54 175.79 287.45 171.79 294.35 167.52 301.52 163.38 308.93 159.38 316.34 155.18 323.99 151.16 331.88 147.39 339.75 143.51 347.86 139.95 356.17 136.77 364.48 133.61 372.99 130.93 381.71 128.8" stroke-dasharray="9 2" transform="rotate(8.08, 400, 400)" opacity="0.32"></path><path d="M384.32 139.61C392.73 137.67 401.15 136.4 409.58 135.78 418.03 135.42 426.49 135.75 434.96 136.77 443.46 138.09 451.98 140.09 460.52 142.75 469.11 145.69 477.73 149.26 486.38 153.41 495.1 157.79 503.85 162.71 512.63 168.1 521.48 173.67 530.36 179.65 539.23 186 548.16 192.44 557.07 199.2 565.92 206.22 574.79 213.26 583.54 220.54 592.12 227.99 600.63 235.43 608.9 243.02 616.83 250.74 624.59 258.41 631.91 266.2 638.71 274.09 645.2 281.92 651.05 289.85 656.19 297.87 660.88 305.84 664.75 313.9 667.74 322.07 670.21 330.19 671.75 338.43 672.32 346.77 672.37 355.08 671.47 363.52 669.65 372.08 667.42 380.63 664.38 389.31 660.57 398.12 656.58 406.92 652.01 415.86 646.95 424.92 642.01 433.98 636.92 442.94 631.78 451.79 627.03 460.63 622.37 469.34 617.89 477.88 613.95 486.4 610.24 494.74 606.76 502.84 603.87 510.89 601.18 518.68 598.69 526.16 596.69 533.55 594.8 540.59 592.95 547.23 590.69 556.77 585.92 573.25 583.06 580.04 579.96 586.02 571.69 594.91 566.37 597.88 560.41 600.25 545.86 602.94 537.31 603.6 531.35 604.2 524.95 604.7 518.15 605.16 511.27 606.07 504.01 607.08 496.41 608.24 488.76 610.01 480.79 612.02 472.55 614.31 464.28 617.26 455.75 620.5 447 623.98 438.24 628.05 429.28 632.28 420.12 636.57 410.97 641.22 401.86 645.63 392.81 649.69 383.76 653.78 374.78 657.31 365.89 660.18 357 662.8 348.19 664.6 339.49 665.54 330.78 666.04 322.18 665.59 313.7 664.21 305.22 662.32 296.85 659.49 288.64 655.79 280.43 651.6 272.37 646.6 264.48 640.88 256.62 634.76 248.94 628.02 241.48 620.74 234.06 613.21 226.88 605.25 219.97 596.95 213.12 588.51 206.57 579.82 200.34 570.95 194.21 562.05 188.43 553.02 183.04 543.94 177.78 534.87 172.92 525.78 168.5 516.69 164.23 507.65 160.41 498.62 157.08 489.63 153.9 480.7 151.21 471.8 149.03 462.94 146.99 454.13 145.46 445.35 144.46 436.62 143.58 427.91 143.2 419.24 143.34 410.6 143.57 401.99 144.29 393.4 145.5 384.86 146.75 376.33 148.43 368.04 150.51 360.01 152.56 351.97 154.97 344.19 157.72 336.68 160.38 329.17 163.35 321.92 166.59 314.97 169.72 308 173.11 301.33 176.73 294.95 180.21 288.57 183.92 282.48 187.85 276.69 191.62 270.88 195.61 265.37 199.81 260.16 203.87 254.89 208.14 249.9 212.63 245.19 216.99 240.39 221.58 235.83 226.4 231.51 231.12 227.06 236.08 222.8 241.28 218.73 246.41 214.48 251.8 210.37 257.44 206.41 263.03 202.22 268.88 198.15 275 194.18 281.08 189.97 287.43 185.86 294.03 181.86 300.61 177.63 307.45 173.52 314.53 169.57 321.6 165.43 328.91 161.48 336.46 157.78 343.99 153.99 351.76 150.51 359.74 147.4 367.71 144.32 375.91 141.7 384.31 139.61" stroke-dasharray="1 1" transform="rotate(12.12, 400, 400)" opacity="0.34"></path><path d="M387.42 150.41C395.52 148.51 403.66 147.23 411.82 146.58 419.99 146.16 428.19 146.4 436.42 147.29 444.67 148.46 452.95 150.27 461.26 152.71 469.61 155.42 478 158.72 486.4 162.59 494.86 166.68 503.35 171.29 511.85 176.36 520.4 181.61 528.95 187.27 537.48 193.3 546.04 199.43 554.55 205.88 562.96 212.6 571.37 219.37 579.63 226.37 587.68 233.56 595.65 240.75 603.34 248.11 610.68 255.61 617.83 263.07 624.54 270.66 630.73 278.35 636.62 286 641.89 293.75 646.47 301.59 650.65 309.38 654.05 317.27 656.63 325.24 658.74 333.18 660 341.21 660.36 349.34 660.27 357.43 659.31 365.64 657.51 373.93 655.36 382.22 652.46 390.61 648.85 399.09 645.1 407.58 640.8 416.16 636.05 424.82 631.4 433.49 626.58 442.03 621.7 450.42 617.15 458.81 612.67 467.03 608.31 475.07 604.43 483.08 600.72 490.88 597.21 498.42 594.21 505.92 591.39 513.14 588.73 520.04 586.53 526.86 584.41 533.32 582.35 539.39 579.75 548.11 574.43 563.07 571.41 569.21 564.22 578.71 549.53 587.9 543.05 589.45 535.99 590.85 519.57 592.98 510.28 594.06 503.89 595.2 497.12 596.43 490.02 597.8 482.87 599.72 475.4 601.86 467.65 604.22 459.87 607.18 451.83 610.37 443.55 613.76 435.26 617.67 426.75 621.7 418.03 625.76 409.32 630.15 400.62 634.31 391.96 638.13 383.31 641.99 374.7 645.32 366.17 648.07 357.63 650.6 349.17 652.39 340.79 653.4 332.42 654.02 324.14 653.79 315.97 652.71 307.81 651.17 299.77 648.77 291.86 645.56 283.97 641.9 276.22 637.48 268.65 632.36 261.11 626.88 253.75 620.78 246.61 614.15 239.51 607.26 232.65 599.93 226.06 592.24 219.54 584.4 213.3 576.28 207.38 567.95 201.57 559.55 196.09 551 190.99 542.35 186.02 533.71 181.44 525 177.28 516.27 173.26 507.56 169.68 498.86 166.57 490.17 163.6 481.53 161.1 472.9 159.09 464.32 157.22 455.78 155.83 447.27 154.95 438.81 154.18 430.37 153.89 421.97 154.11 413.64 154.4 405.31 155.16 397.03 156.4 388.82 157.67 380.6 159.36 372.64 161.43 364.94 163.47 357.24 165.86 349.8 168.56 342.62 171.2 335.44 174.12 328.52 177.31 321.88 180.39 315.23 183.72 308.86 187.27 302.77 190.69 296.66 194.33 290.83 198.18 285.29 201.88 279.71 205.79 274.4 209.9 269.36 213.87 264.26 218.05 259.42 222.42 254.81 226.68 250.12 231.14 245.64 235.82 241.37 240.4 236.96 245.2 232.73 250.23 228.67 255.18 224.43 260.37 220.33 265.8 216.35 271.17 212.17 276.79 208.09 282.65 204.12 288.47 199.92 294.55 195.82 300.86 191.84 307.15 187.65 313.69 183.59 320.46 179.69 327.22 175.62 334.22 171.76 341.44 168.14 348.66 164.44 356.1 161.05 363.76 158.02 371.42 155.02 379.31 152.46 387.41 150.41" stroke-dasharray="10 4" transform="rotate(16.16, 400, 400)" opacity="0.49"></path><path d="M390.91 161.21C398.71 159.35 406.55 158.07 414.43 157.39 422.32 156.92 430.25 157.07 438.21 157.84 446.19 158.86 454.21 160.49 462.25 162.72 470.32 165.19 478.43 168.24 486.55 171.82 494.71 175.62 502.89 179.91 511.06 184.66 519.27 189.58 527.45 194.9 535.58 200.59 543.73 206.4 551.8 212.52 559.74 218.92 567.65 225.37 575.38 232.07 582.89 238.97 590.29 245.88 597.4 252.97 604.15 260.21 610.7 267.43 616.82 274.78 622.42 282.24 627.73 289.67 632.45 297.2 636.51 304.82 640.2 312.4 643.17 320.07 645.38 327.82 647.17 335.54 648.16 343.34 648.35 351.22 648.14 359.08 647.14 367.02 645.37 375.03 643.31 383.03 640.55 391.11 637.16 399.25 633.64 407.39 629.61 415.6 625.15 423.86 620.78 432.12 616.24 440.23 611.61 448.17 607.28 456.1 602.97 463.84 598.74 471.38 594.93 478.89 591.25 486.17 587.73 493.18 584.66 500.15 581.73 506.83 578.94 513.18 576.56 519.47 574.26 525.4 572 530.94 569.09 538.91 563.23 552.54 560.04 558.13 552.8 566.89 538.66 575.69 532.56 577.37 525.97 578.97 510.69 581.7 502.04 583.14 496.09 584.48 489.78 585.92 483.15 587.47 476.47 589.52 469.48 591.75 462.21 594.17 454.91 597.11 447.34 600.25 439.52 603.54 431.7 607.29 423.64 611.12 415.38 614.96 407.11 619.09 398.84 622.99 390.59 626.57 382.35 630.2 374.13 633.36 365.97 635.96 357.81 638.39 349.71 640.16 341.69 641.21 333.68 641.94 325.75 641.9 317.92 641.07 310.11 639.85 302.4 637.84 294.83 635.07 287.29 631.91 279.88 628.03 272.65 623.49 265.45 618.6 258.43 613.13 251.63 607.13 244.88 600.88 238.35 594.18 232.09 587.11 225.91 579.88 220.01 572.35 214.41 564.58 208.92 556.72 203.76 548.69 198.96 540.53 194.28 532.35 189.98 524.07 186.09 515.75 182.33 507.44 179 499.1 176.1 490.77 173.35 482.46 171.04 474.16 169.2 465.9 167.49 457.66 166.24 449.45 165.47 441.3 164.81 433.16 164.61 425.06 164.89 417.03 165.24 409.01 166.04 401.05 167.3 393.15 168.59 385.26 170.28 377.62 172.33 370.25 174.35 362.86 176.71 355.74 179.37 348.87 181.96 342 184.84 335.38 187.97 329.04 190.99 322.67 194.26 316.57 197.74 310.74 201.11 304.88 204.68 299.27 208.44 293.94 212.08 288.55 215.91 283.42 219.93 278.53 223.82 273.57 227.9 268.84 232.17 264.33 236.32 259.72 240.68 255.3 245.23 251.07 249.68 246.71 254.34 242.5 259.2 238.44 263.99 234.22 269.01 230.11 274.24 226.13 279.41 221.95 284.81 217.88 290.44 213.91 296.03 209.74 301.85 205.67 307.91 201.72 313.93 197.58 320.19 193.58 326.67 189.74 333.14 185.76 339.84 181.99 346.76 178.45 353.67 174.86 360.81 171.56 368.17 168.62 375.52 165.71 383.1 163.22 390.9 161.22" stroke-dasharray="8 10" transform="rotate(20.200000000000003, 400, 400)" opacity="0.58"></path><path d="M394.68 172.02C402.18 170.19 409.73 168.92 417.31 168.21 424.91 167.7 432.55 167.77 440.21 168.42 447.9 169.3 455.62 170.76 463.36 172.77 471.13 175.02 478.93 177.81 486.72 181.1 494.55 184.61 502.37 188.59 510.17 193 517.98 197.59 525.76 202.57 533.46 207.91 541.15 213.37 548.74 219.14 556.18 225.2 563.57 231.32 570.77 237.69 577.71 244.26 584.55 250.87 591.08 257.66 597.23 264.59 603.2 271.53 608.73 278.61 613.76 285.79 618.53 292.96 622.72 300.24 626.3 307.59 629.55 314.93 632.12 322.35 633.99 329.84 635.49 337.31 636.26 344.85 636.3 352.45 635.99 360.03 634.97 367.69 633.25 375.38 631.27 383.08 628.67 390.83 625.48 398.62 622.19 406.4 618.42 414.23 614.25 422.08 610.15 429.92 605.88 437.6 601.51 445.08 597.39 452.56 593.26 459.83 589.18 466.87 585.46 473.9 581.84 480.68 578.33 487.19 575.22 493.65 572.22 499.83 569.32 505.68 565.57 514.19 558.71 529.29 555.43 535.79 548.99 546.63 537.66 558.65 532.94 561.29 527.88 563.67 515.91 567.32 508.98 568.84 501.62 570.64 485.06 574.73 475.92 577.24 469.69 579.4 463.15 581.7 456.33 584.15 449.49 587.07 442.38 590.13 435.02 593.31 427.65 596.9 420.05 600.54 412.24 604.16 404.42 608.04 396.58 611.69 388.75 615.04 380.93 618.44 373.12 621.41 365.35 623.87 357.6 626.2 349.88 627.92 342.24 629 334.61 629.81 327.05 629.92 319.58 629.32 312.14 628.38 304.8 626.71 297.6 624.35 290.42 621.64 283.37 618.26 276.5 614.26 269.67 609.95 263.01 605.06 256.56 599.68 250.18 594.05 244.01 587.98 238.1 581.53 232.27 574.91 226.71 567.97 221.45 560.79 216.29 553.5 211.45 546.01 206.96 538.38 202.58 530.69 198.57 522.9 194.95 515.03 191.45 507.16 188.35 499.23 185.68 491.3 183.14 483.37 181.02 475.43 179.35 467.52 177.8 459.63 176.68 451.76 176.03 443.93 175.47 436.12 175.36 428.35 175.69 420.64 176.1 412.94 176.93 405.3 178.21 397.73 179.5 390.16 181.18 382.84 183.2 375.77 185.2 368.7 187.53 361.88 190.14 355.3 192.69 348.72 195.51 342.38 198.57 336.3 201.54 330.2 204.74 324.34 208.15 318.73 211.44 313.09 214.94 307.69 218.63 302.53 222.19 297.32 225.95 292.34 229.88 287.57 233.69 282.74 237.68 278.1 241.85 273.67 245.9 269.13 250.15 264.77 254.57 260.57 258.91 256.24 263.43 252.05 268.15 248.01 272.79 243.8 277.64 239.7 282.69 235.72 287.68 231.56 292.89 227.5 298.3 223.55 303.67 219.42 309.27 215.39 315.08 211.49 320.85 207.42 326.85 203.49 333.07 199.73 339.26 195.85 345.68 192.17 352.32 188.73 358.94 185.25 365.78 182.05 372.84 179.2 379.9 176.39 387.18 173.98 394.67 172.02" stroke-dasharray="4 10" transform="rotate(24.24, 400, 400)" opacity="0.82"></path><path d="M398.62 182.82C405.81 181.04 413.06 179.78 420.33 179.05 427.62 178.5 434.95 178.49 442.3 179.03 449.67 179.78 457.07 181.07 464.48 182.88 471.91 184.9 479.35 187.44 486.79 190.45 494.23 193.67 501.67 197.33 509.06 201.42 516.45 205.66 523.78 210.29 531.01 215.27 538.23 220.37 545.31 225.79 552.23 231.48 559.09 237.25 565.73 243.26 572.11 249.48 578.38 255.75 584.33 262.2 589.91 268.81 595.31 275.44 600.29 282.2 604.78 289.07 609.02 295.95 612.73 302.93 615.86 309.99 618.7 317.04 620.91 324.18 622.47 331.37 623.72 338.55 624.3 345.8 624.21 353.09 623.83 360.37 622.8 367.71 621.14 375.07 619.26 382.44 616.81 389.84 613.82 397.25 610.75 404.67 607.24 412.1 603.35 419.53 599.52 426.95 595.51 434.19 591.39 441.22 587.49 448.25 583.55 455.06 579.63 461.64 576.02 468.19 572.47 474.5 568.99 480.52 565.87 486.52 562.82 492.22 559.85 497.61 555.92 505.46 548.63 519.33 545.11 525.31 538.3 535.36 526.78 546.77 522.16 549.41 517.27 551.87 505.89 555.92 499.36 557.7 492.46 559.79 476.98 564.41 468.44 567.12 462.62 569.36 456.51 571.71 450.12 574.17 443.72 577.04 437.05 580.03 430.14 583.09 423.23 586.51 416.08 589.95 408.71 593.35 401.35 596.99 393.95 600.4 386.55 603.53 379.16 606.7 371.77 609.48 364.42 611.8 357.07 614.01 349.76 615.68 342.51 616.77 335.28 617.63 328.12 617.86 321.04 617.45 313.99 616.75 307.04 615.39 300.22 613.4 293.42 611.1 286.77 608.18 280.27 604.68 273.82 600.9 267.54 596.58 261.47 591.78 255.46 586.75 249.66 581.28 244.12 575.44 238.65 569.44 233.44 563.11 228.52 556.51 223.7 549.81 219.19 542.88 215.01 535.79 210.94 528.64 207.21 521.35 203.86 513.97 200.63 506.57 197.77 499.1 195.32 491.59 192.99 484.09 191.06 476.56 189.55 469.04 188.15 461.52 187.17 454.02 186.62 446.55 186.17 439.09 186.13 431.67 186.52 424.3 186.97 416.93 187.83 409.62 189.11 402.38 190.41 395.14 192.07 388.14 194.06 381.38 196.03 374.61 198.31 368.08 200.86 361.78 203.36 355.47 206.12 349.4 209.11 343.56 212.02 337.7 215.15 332.07 218.48 326.66 221.71 321.22 225.13 316 228.73 311 232.22 305.94 235.89 301.09 239.73 296.43 243.46 291.7 247.36 287.16 251.43 282.79 255.4 278.32 259.54 274 263.84 269.83 268.06 265.54 272.46 261.38 277.04 257.34 281.55 253.16 286.24 249.09 291.12 245.12 295.94 240.99 300.96 236.96 306.18 233.05 311.35 228.97 316.73 224.99 322.31 221.15 327.85 217.16 333.61 213.32 339.57 209.65 345.51 205.88 351.66 202.31 358.02 198.98 364.36 195.61 370.92 192.53 377.69 189.77 384.45 187.06 391.42 184.72 398.61 182.82" stroke-dasharray="7 3" transform="rotate(28.28, 400, 400)" opacity="0.90"></path><path d="M402.61 193.62C409.49 191.89 416.41 190.65 423.37 189.9 430.33 189.32 437.33 189.25 444.34 189.67 451.37 190.29 458.42 191.42 465.47 193.04 472.53 194.85 479.6 197.14 486.63 199.88 493.68 202.8 500.69 206.15 507.64 209.91 514.58 213.81 521.44 218.09 528.18 222.7 534.89 227.44 541.46 232.48 547.84 237.79 554.16 243.18 560.25 248.82 566.07 254.67 571.77 260.58 577.16 266.67 582.19 272.92 587.04 279.19 591.49 285.61 595.47 292.14 599.23 298.69 602.49 305.34 605.21 312.07 607.67 318.8 609.56 325.61 610.85 332.47 611.87 339.34 612.29 346.26 612.1 353.21 611.66 360.17 610.64 367.16 609.04 374.17 607.27 381.18 604.97 388.21 602.19 395.24 599.33 402.27 596.07 409.29 592.44 416.3 588.88 423.3 585.13 430.1 581.26 436.7 577.58 443.28 573.83 449.65 570.08 455.77 566.6 461.88 563.13 467.73 559.72 473.32 555.08 481.51 546.48 496.36 542.47 502.96 538.83 509.17 531.64 519.83 527.95 524.29 520.27 531.74 506.92 540.34 501.61 542.52 496.02 544.78 483.34 549.15 476.25 551.45 468.83 554.22 452.54 560.57 443.72 564.22 437.73 567.04 431.49 569.93 425.02 572.86 418.53 576.11 411.83 579.36 404.91 582.55 398 585.95 391.05 589.12 384.08 592.03 377.13 594.99 370.17 597.57 363.24 599.75 356.32 601.84 349.43 603.44 342.6 604.52 335.78 605.42 329.03 605.74 322.36 605.49 315.72 605 309.17 603.91 302.75 602.24 296.36 600.31 290.1 597.81 284 594.77 277.95 591.48 272.07 587.69 266.38 583.44 260.76 578.98 255.34 574.1 250.17 568.85 245.07 563.44 240.22 557.71 235.65 551.7 231.18 545.58 226.99 539.24 223.12 532.7 219.36 526.1 215.93 519.34 212.84 512.48 209.87 505.58 207.26 498.59 205.02 491.54 202.9 484.49 201.15 477.39 199.8 470.29 198.56 463.19 197.7 456.08 197.26 448.99 196.89 441.91 196.92 434.85 197.36 427.84 197.85 420.83 198.73 413.86 200.01 406.96 201.31 400.05 202.94 393.36 204.89 386.9 206.83 380.43 209.05 374.18 211.54 368.16 213.98 362.11 216.67 356.29 219.58 350.68 222.42 345.04 225.47 339.62 228.72 334.4 231.87 329.15 235.21 324.09 238.72 319.23 242.14 314.31 245.72 309.58 249.47 305.02 253.11 300.4 256.92 295.93 260.89 291.62 264.76 287.21 268.79 282.95 272.99 278.82 277.09 274.57 281.37 270.44 285.82 266.43 290.19 262.29 294.74 258.24 299.46 254.31 304.12 250.23 308.97 246.25 313.99 242.38 318.98 238.37 324.15 234.47 329.51 230.7 334.84 226.82 340.36 223.08 346.08 219.51 351.77 215.86 357.66 212.41 363.75 209.19 369.83 205.95 376.1 202.98 382.58 200.33 389.05 197.72 395.72 195.47 402.6 193.63" stroke-dasharray="1 11" transform="rotate(32.32, 400, 400)" opacity="0.88"></path><path d="M406.51 204.43C413.07 202.75 419.66 201.53 426.28 200.77 432.9 200.16 439.55 200.02 446.21 200.35 452.87 200.85 459.55 201.83 466.21 203.25 472.88 204.86 479.54 206.91 486.15 209.38 492.77 212.02 499.33 215.07 505.81 218.49 512.28 222.06 518.65 225.98 524.89 230.22 531.09 234.59 537.13 239.24 542.98 244.16 548.75 249.17 554.29 254.42 559.56 259.88 564.72 265.4 569.57 271.11 574.06 276.97 578.4 282.87 582.34 288.92 585.85 295.08 589.16 301.26 592 307.55 594.35 313.91 596.47 320.29 598.07 326.75 599.12 333.25 599.95 339.77 600.23 346.33 599.96 352.92 599.49 359.51 598.48 366.14 596.96 372.77 595.29 379.41 593.15 386.05 590.57 392.68 587.93 399.31 584.91 405.93 581.54 412.5 578.24 419.08 574.74 425.45 571.12 431.61 567.65 437.77 564.11 443.7 560.54 449.4 557.19 455.08 553.84 460.52 550.5 465.69 545.91 473.28 537.23 487.02 533.11 493.13 529.32 498.9 521.81 508.88 517.98 513.1 510.14 520.35 496.89 529.08 491.76 531.44 486.39 533.9 474.36 538.73 467.69 541.24 460.72 544.17 445.48 550.68 437.23 554.3 431.64 557.05 425.81 559.83 419.76 562.64 413.7 565.71 407.43 568.76 400.96 571.75 394.49 574.91 387.98 577.86 381.46 580.54 374.95 583.29 368.43 585.69 361.93 587.72 355.45 589.68 348.99 591.21 342.58 592.26 336.19 593.17 329.87 593.57 323.62 593.45 317.4 593.13 311.28 592.27 305.27 590.89 299.3 589.28 293.45 587.16 287.76 584.54 282.12 581.7 276.64 578.4 271.35 574.66 266.12 570.74 261.1 566.41 256.3 561.73 251.57 556.9 247.09 551.75 242.87 546.32 238.74 540.78 234.89 535.01 231.33 529.03 227.87 522.99 224.73 516.78 221.91 510.44 219.2 504.06 216.82 497.58 214.8 491.02 212.87 484.44 211.31 477.8 210.11 471.14 209.01 464.47 208.28 457.78 207.93 451.1 207.65 444.42 207.75 437.75 208.22 431.1 208.75 424.46 209.64 417.85 210.91 411.29 212.19 404.72 213.8 398.36 215.7 392.19 217.59 386.03 219.76 380.06 222.18 374.29 224.55 368.51 227.17 362.92 229.99 357.53 232.75 352.12 235.72 346.89 238.87 341.85 243.57 334.32 253.68 320.06 259.08 313.29 264.49 306.57 275.94 293.69 281.98 287.5 285.98 283.31 290.13 279.23 294.44 275.26 298.68 271.17 303.09 267.17 307.65 263.29 312.16 259.27 316.84 255.36 321.68 251.56 326.48 247.64 331.46 243.83 336.61 240.15 341.73 236.38 347.03 232.75 352.5 229.3 357.96 225.78 363.6 222.46 369.42 219.37 375.23 216.26 381.22 213.41 387.41 210.87 393.58 208.37 399.95 206.21 406.5 204.43" stroke-dasharray="7 3" transform="rotate(36.36, 400, 400)" opacity="0.32"></path><path d="M410.21 215.23C416.43 213.61 422.69 212.42 428.95 211.66 435.22 211.02 441.5 210.83 447.78 211.07 460.36 212.01 472.91 214.7 485.25 218.97 497.57 223.85 509.6 230.23 521.1 237.86 532.41 245.94 543.01 255.12 552.59 265.16 561.74 275.45 569.61 286.45 575.93 297.95 581.55 309.55 585.41 321.57 587.31 333.8 588.44 346.07 587.64 358.53 584.9 371 583.35 377.24 581.36 383.48 578.97 389.7 576.53 395.92 573.75 402.12 570.64 408.27 567.59 414.42 564.34 420.38 560.96 426.12 557.72 431.86 554.38 437.38 550.99 442.67 544.8 453.21 538.53 462.81 532.32 471.35 526.99 479.81 521.6 487.21 516.11 493.5 511.28 499.77 506.09 505.02 500.43 509.3 495.11 513.78 489.08 517.53 482.27 520.67 475.54 524.41 467.89 527.88 459.34 531.2 450.75 535.5 441.22 539.91 430.8 544.41 425.58 547.07 420.14 549.74 414.5 552.41 408.86 555.31 403.01 558.17 396.98 560.94 390.95 563.88 384.88 566.6 378.8 569.08 372.73 571.61 366.65 573.83 360.59 575.71 348.51 579.32 336.55 581.22 324.9 581.34 313.36 580.8 302.19 578.31 291.6 574.01 281.19 568.97 271.44 562.24 262.54 554.09 253.91 545.39 246.22 535.51 239.64 524.75 233.42 513.72 228.37 502.02 224.65 489.91 221.28 477.73 219.24 465.27 218.64 452.74 218.45 446.47 218.6 440.2 219.11 433.94 219.66 427.68 220.56 421.44 221.81 415.22 223.08 409.01 224.65 402.97 226.49 397.11 228.33 391.25 230.43 385.56 232.77 380.05 237.33 369 242.77 358.61 248.93 348.91 254.81 339.07 261.39 329.82 268.54 321.16 275.37 312.25 282.81 303.81 290.79 295.86 298.48 287.53 306.78 279.57 315.65 272.04 324.3 264.09 333.61 256.53 343.52 249.5 353.31 242.14 363.79 235.4 374.91 229.51 380.45 226.54 386.16 223.83 392.05 221.4 397.92 219.01 403.98 216.94 410.2 215.23" stroke-dasharray="1 2" transform="rotate(40.400000000000006, 400, 400)" opacity="0.72"></path><path d="M413.59 226.03C425.35 223.03 437.18 221.64 448.94 221.82 460.72 222.54 472.41 224.86 483.85 228.66 495.24 233 506.28 238.72 516.76 245.63 527.04 252.96 536.59 261.34 545.14 270.55 553.3 280.01 560.24 290.18 565.73 300.83 570.62 311.62 573.9 322.81 575.42 334.22 576.3 345.69 575.45 357.33 572.86 368.98 569.9 380.65 565.48 392.3 559.74 403.76 554.18 415.21 547.98 425.9 541.44 435.72 535.54 445.51 529.48 454.41 523.39 462.34 518.06 470.23 512.62 477.17 507.07 483.12 502.11 489.11 496.82 494.21 491.14 498.48 485.78 502.98 479.82 506.86 473.2 510.22 466.69 514.13 459.39 517.81 451.3 521.33 443.21 525.71 434.27 530.12 424.56 534.54 414.81 539.88 404.29 545.15 393.09 550.14 381.89 555.68 370.57 560.27 359.33 563.73 348.13 567.09 337.06 568.92 326.29 569.16 315.62 568.88 305.32 566.86 295.57 563.2 286 558.93 277.06 553.09 268.92 545.92 261.04 538.28 254.04 529.48 248.08 519.81 242.44 509.87 237.89 499.23 234.58 488.14 231.59 476.96 229.83 465.44 229.4 453.78 229.21 442.11 230.29 430.34 232.71 418.64 235.2 406.93 238.8 395.8 243.31 385.32 247.72 374.79 252.96 364.84 258.89 355.49 264.59 346.01 270.94 337.05 277.84 328.6 284.47 319.93 291.68 311.68 299.38 303.86 306.84 295.73 314.86 287.94 323.4 280.58 331.75 272.86 340.68 265.53 350.17 258.73 359.55 251.68 369.54 245.24 380.12 239.62 390.65 233.99 401.82 229.38 413.58 226.04" stroke-dasharray="0 6" transform="rotate(44.44, 400, 400)" opacity="0.49"></path><path d="M416.54 236.84C427.59 233.96 438.66 232.56 449.61 232.61 460.56 233.13 471.37 235.11 481.87 238.45 492.32 242.26 502.38 247.35 511.84 253.56 521.12 260.14 529.67 267.72 537.24 276.1 544.45 284.72 550.54 294.03 555.27 303.82 559.5 313.75 562.28 324.08 563.47 334.63 564.15 345.25 563.28 356.05 560.85 366.85 558.13 377.69 554.09 388.49 548.84 399.11 543.74 409.73 538 419.63 531.88 428.73 526.3 437.8 520.48 446.06 514.58 453.45 509.3 460.83 503.88 467.37 498.33 473.04 493.3 478.78 487.96 483.77 482.29 488.04 476.93 492.55 471.05 496.54 464.62 500.09 458.31 504.14 451.33 507.97 443.67 511.62 436.03 516.02 427.66 520.4 418.61 524.7 409.54 529.77 399.78 534.72 389.42 539.34 379.06 544.42 368.61 548.62 358.25 551.77 347.93 554.88 337.74 556.62 327.86 556.95 318.07 556.87 308.64 555.24 299.74 552.15 291 548.55 282.86 543.52 275.48 537.26 268.33 530.59 262.01 522.83 256.66 514.19 251.58 505.32 247.53 495.73 244.61 485.65 241.97 475.46 240.47 464.89 240.2 454.12 240.13 443.33 241.25 432.37 243.61 421.4 246.04 410.43 249.5 399.94 253.82 389.99 258.05 380 263.07 370.5 268.75 361.51 274.23 352.42 280.35 343.76 286.98 335.56 293.38 327.16 300.33 319.13 307.74 311.5 314.94 303.61 322.66 296.04 330.85 288.88 338.88 281.44 347.44 274.39 356.49 267.87 365.44 261.14 374.95 255.02 384.97 249.7 394.95 244.38 405.49 240.02 416.54 236.84" stroke-dasharray="6 3" transform="rotate(48.48, 400, 400)" opacity="0.80"></path><path d="M418.97 247.64C429.29 244.9 439.57 243.51 449.68 243.45 459.79 243.78 469.7 245.44 479.27 248.34 488.78 251.66 497.86 256.15 506.34 261.67 514.65 267.53 522.23 274.32 528.88 281.86 535.22 289.64 540.51 298.07 544.58 306.98 548.22 316.03 550.55 325.48 551.47 335.15 551.98 344.9 551.11 354.83 548.86 364.77 546.39 374.75 542.72 384.71 537.94 394.5 533.28 404.29 528 413.42 522.32 421.83 517.07 430.23 511.54 437.9 505.86 444.81 500.7 451.71 495.37 457.89 489.88 463.33 484.84 468.85 479.51 473.73 473.9 478 468.57 482.52 462.79 486.6 456.56 490.28 450.45 494.41 443.78 498.34 436.54 502.07 429.33 506.44 421.49 510.73 413.07 514.88 404.64 519.68 395.62 524.29 386.08 528.53 376.54 533.18 366.95 536.99 357.46 539.85 348.01 542.69 338.71 544.32 329.7 544.7 320.78 544.77 312.22 543.47 304.16 540.86 296.24 537.85 288.89 533.56 282.26 528.12 275.82 522.34 270.15 515.54 265.39 507.9 260.86 500.04 257.28 491.47 254.74 482.37 252.43 473.18 251.17 463.56 251.04 453.67 251.09 443.77 252.23 433.64 254.51 423.42 256.86 413.2 260.16 403.37 264.27 393.97 268.31 384.55 273.1 375.52 278.51 366.93 283.76 358.25 289.6 349.93 295.94 342.01 302.09 333.92 308.75 326.16 315.84 318.77 322.76 311.17 330.15 303.87 337.97 296.97 345.65 289.85 353.81 283.12 362.4 276.9 370.91 270.54 379.91 264.76 389.35 259.74 398.76 254.75 408.65 250.65 418.97 247.64" stroke-dasharray="7 1" transform="rotate(52.52, 400, 400)" opacity="0.17"></path><path d="M420.81 258.44C430.37 255.85 439.84 254.49 449.1 254.32 458.36 254.48 467.37 255.86 476.01 258.35 484.59 261.19 492.73 265.11 500.25 269.97 507.63 275.12 514.3 281.14 520.1 287.86 525.64 294.8 530.21 302.37 533.67 310.39 536.78 318.55 538.74 327.1 539.43 335.89 539.81 344.75 538.97 353.79 536.91 362.87 534.67 371.98 531.36 381.09 527.04 390.07 522.82 399.05 517.99 407.45 512.75 415.21 507.85 422.96 502.64 430.08 497.23 436.53 492.25 443 487.06 448.85 481.7 454.07 476.72 459.39 471.47 464.16 465.96 468.43 460.7 472.92 455.07 477.03 449.06 480.8 443.17 484.96 436.8 488.92 429.96 492.67 423.17 496.95 415.85 501.11 408.04 505.08 400.23 509.58 391.93 513.85 383.18 517.73 374.43 521.95 365.68 525.39 357.05 527.95 348.45 530.53 340.02 532.04 331.88 532.43 323.82 532.61 316.1 531.58 308.86 529.38 301.75 526.88 295.17 523.23 289.26 518.54 283.52 513.58 278.49 507.66 274.29 500.94 270.29 494.04 267.15 486.44 264.96 478.3 262.97 470.07 261.93 461.39 261.93 452.39 262.07 443.37 263.22 434.08 265.41 424.63 267.66 415.18 270.8 406.02 274.68 397.21 278.52 388.37 283.05 379.85 288.16 371.68 293.15 363.45 298.7 355.51 304.71 347.92 310.58 340.2 316.92 332.77 323.66 325.67 330.26 318.4 337.3 311.43 344.72 304.85 352.02 298.09 359.75 291.71 367.86 285.84 375.9 279.87 384.37 274.46 393.21 269.76 402.02 265.1 411.24 261.27 420.81 258.44" stroke-dasharray="4 2" transform="rotate(56.56, 400, 400)" opacity="0.52"></path><path d="M421.99 269.25C430.78 266.81 439.43 265.48 447.84 265.23 456.23 265.25 464.35 266.36 472.08 268.47 479.75 270.88 486.96 274.25 493.59 278.48 500.08 282.96 505.91 288.23 510.92 294.16 515.72 300.28 519.64 306.99 522.57 314.14 525.22 321.41 526.85 329.06 527.37 336.96 527.64 344.92 526.85 353.08 524.98 361.3 522.98 369.54 520.02 377.81 516.14 385.99 512.34 394.17 507.96 401.85 503.16 408.98 498.63 416.11 493.77 422.71 488.68 428.74 483.93 434.79 478.94 440.33 473.78 445.33 468.91 450.44 463.8 455.09 458.46 459.31 453.33 463.74 447.88 467.85 442.12 471.64 436.46 475.77 430.42 479.7 424 483.41 417.61 487.55 410.8 491.53 403.59 495.29 396.39 499.48 388.77 503.4 380.8 506.93 372.83 510.73 364.9 513.81 357.11 516.09 349.35 518.4 341.76 519.77 334.47 520.16 327.24 520.4 320.35 519.58 313.92 517.74 307.58 515.67 301.75 512.58 296.54 508.56 291.46 504.32 287.04 499.21 283.37 493.35 279.87 487.34 277.15 480.66 275.29 473.44 273.59 466.14 272.76 458.37 272.86 450.25 273.09 442.11 274.22 433.66 276.31 424.99 278.46 416.32 281.41 407.85 285.05 399.65 288.65 391.43 292.91 383.45 297.7 375.76 302.41 368.02 307.63 360.52 313.3 353.31 318.84 346.01 324.83 338.95 331.19 332.21 337.44 325.33 344.08 318.74 351.07 312.51 357.96 306.17 365.24 300.19 372.83 294.69 380.37 289.13 388.27 284.1 396.48 279.75 404.67 275.44 413.2 271.88 421.99 269.25" stroke-dasharray="10 4" transform="rotate(60.599999999999994, 400, 400)" opacity="0.09"></path><path d="M422.48 280.05C430.48 277.78 438.3 276.5 445.85 276.18 453.39 276.09 460.64 276.95 467.48 278.71 474.27 280.71 480.61 283.58 486.38 287.21 492.04 291.05 497.08 295.62 501.38 300.78 505.51 306.11 508.85 311.98 511.31 318.27 513.56 324.67 514.91 331.44 515.29 338.46 515.49 345.53 514.76 352.81 513.08 360.18 511.31 367.56 508.69 375.01 505.23 382.4 501.85 389.79 497.9 396.78 493.56 403.3 489.41 409.83 484.92 415.91 480.19 421.53 475.71 427.17 470.99 432.39 466.08 437.17 461.41 442.05 456.5 446.55 451.39 450.69 446.45 455.01 441.23 459.05 435.75 462.8 430.38 466.84 424.68 470.67 418.68 474.28 412.72 478.23 406.41 482 399.79 485.52 393.19 489.37 386.25 492.95 379.03 496.12 371.82 499.52 364.68 502.25 357.71 504.26 350.75 506.31 343.99 507.53 337.52 507.9 328.05 507.83 311.2 502.95 304.09 498.22 299.65 494.63 295.8 490.25 292.64 485.18 289.61 479.98 287.28 474.16 285.73 467.81 284.3 461.4 283.65 454.51 283.84 447.25 284.13 439.97 285.24 432.36 287.21 424.48 289.23 416.61 291.99 408.85 295.37 401.3 298.73 393.72 302.69 386.32 307.14 379.16 311.53 371.95 316.41 364.93 321.69 358.17 326.88 351.33 332.48 344.72 338.42 338.38 344.27 331.96 350.49 325.8 357 319.98 363.44 314.09 370.22 308.54 377.26 303.46 384.27 298.33 391.58 293.71 399.13 289.71 406.67 285.75 414.48 282.49 422.48 280.05" stroke-dasharray="5 6" transform="rotate(64.64, 400, 400)" opacity="0.57"></path><path d="M422.27 290.86C429.46 288.76 436.45 287.55 443.16 287.18 449.85 286.98 456.23 287.64 462.22 289.08 470.92 291.91 485.71 301.37 491.52 307.76 496.46 314.86 502.37 331.37 503.21 340.48 503.36 346.68 502.7 353.09 501.22 359.62 499.68 366.16 497.38 372.79 494.33 379.41 491.34 386.04 487.84 392.33 483.94 398.26 480.19 404.19 476.1 409.77 471.75 414.97 467.6 420.2 463.19 425.09 458.59 429.62 454.18 434.23 449.54 438.54 444.71 442.54 440.02 446.7 435.09 450.61 429.95 454.27 424.89 458.15 419.57 461.83 414.01 465.28 408.5 469 402.71 472.51 396.68 475.76 390.66 479.27 384.39 482.49 377.92 485.32 371.44 488.33 365.08 490.72 358.89 492.47 349.74 494.79 332.77 495.65 325.18 494.09 318.09 491.58 306.46 482.69 302.11 476.47 298.54 469.51 294.85 452.86 294.87 443.42 295.2 436.98 296.27 430.2 298.12 423.12 300 416.05 302.54 409.04 305.65 402.15 308.74 395.26 312.38 388.48 316.48 381.89 320.53 375.26 325.02 368.79 329.89 362.53 334.69 356.22 339.87 350.1 345.35 344.23 350.77 338.31 356.51 332.63 362.51 327.27 368.46 321.86 374.7 316.79 381.16 312.14 387.59 307.48 394.27 303.27 401.14 299.64 408 296.05 415.07 293.09 422.27 290.86" stroke-dasharray="9 6" transform="rotate(68.68, 400, 400)" opacity="0.48"></path><path d="M421.35 301.66C434.12 297.98 445.97 297.41 456.36 299.57 466.6 302.33 475.13 307.7 481.38 315.1 487.24 322.92 490.63 332.47 491.14 343.08 491.3 353.84 488.75 365.4 483.43 377.14 478.29 388.87 471.34 399.63 463.35 409.14 455.93 418.77 447.48 427.4 438.4 434.89 429.76 442.88 420.21 450.13 410.02 456.39 399.95 463.46 389 469.71 377.5 474.51 366 479.89 355.05 482.88 345.17 483.44 335.39 483.86 326.86 481.53 320.11 476.7 313.62 471.53 309.07 463.96 306.93 454.47 305.08 444.83 305.66 433.5 309.02 420.96 312.49 408.43 318.26 395.92 325.71 383.98 333.03 371.98 341.97 360.4 351.97 349.77 361.81 338.99 372.81 329.11 384.5 320.76 396.13 312.41 408.58 305.78 421.35 301.66" stroke-dasharray="10 3" transform="rotate(72.72, 400, 400)" opacity="0.78"></path><path d="M419.77 312.46C430.9 309.15 441.1 308.5 449.93 310.19 458.65 312.32 465.83 316.7 471.01 322.85 475.92 329.31 478.72 337.32 479.1 346.34 479.23 355.47 477.08 365.41 472.53 375.66 468.11 385.9 462.05 395.46 454.98 404.05 448.31 412.76 440.66 420.71 432.43 427.71 424.52 435.09 415.83 441.81 406.65 447.6 397.59 453.98 387.85 459.53 377.78 463.71 367.72 468.32 358.26 470.83 349.82 471.26 341.46 471.64 334.23 469.69 328.6 465.62 323.14 461.34 319.38 454.98 317.71 446.91 316.24 438.74 316.87 429 319.92 418.08 323.05 407.16 328.21 396.13 334.84 385.51 341.39 374.86 349.38 364.54 358.3 355.04 367.13 345.47 376.95 336.69 387.32 329.3 397.66 321.95 408.64 316.12 419.77 312.46" stroke-dasharray="2 2" transform="rotate(76.76, 400, 400)" opacity="0.23"></path><path d="M417.57 323.27C427.06 320.35 435.66 319.66 443.02 320.94 450.3 322.53 456.23 326.01 460.46 331 464.51 336.21 466.8 342.78 467.08 350.29 467.22 357.87 465.44 366.25 461.63 375.02 457.92 383.79 452.73 392.12 446.63 399.75 440.79 407.45 434.03 414.6 426.75 420.98 419.69 427.63 411.97 433.7 403.89 438.91 395.9 444.53 387.42 449.35 378.77 452.91 370.11 456.78 362.09 458.84 355.03 459.15 345.01 458.63 331.38 448.29 328.6 438.91 327.46 432.09 328.12 423.88 330.82 414.56 333.59 405.25 338.1 395.75 343.86 386.54 349.6 377.32 356.57 368.34 364.35 360.07 372.08 351.78 380.64 344.18 389.63 337.8 398.61 331.47 408.07 326.44 417.57 323.27" stroke-dasharray="11 4" transform="rotate(80.80000000000001, 400, 400)" opacity="0.86"></path><path d="M414.81 334.07C422.67 331.57 429.72 330.9 435.69 331.82 444 334.29 453.97 346.26 455.11 354.95 455.25 361.07 453.83 367.93 450.73 375.25 447.69 382.56 443.4 389.63 438.28 396.19 433.32 402.82 427.56 409.06 421.32 414.67 415.22 420.47 408.58 425.77 401.68 430.3 394.84 435.09 387.65 439.16 380.42 442.1 369.86 446.08 352.62 446.62 346.52 443.17 341.72 438.2 339.07 421.63 341.72 410.55 344.1 402.83 347.92 394.9 352.8 387.16 357.66 379.43 363.57 371.88 370.14 364.92 376.69 357.95 383.93 351.59 391.49 346.24 399.04 340.95 406.94 336.75 414.81 334.07" stroke-dasharray="7 4" transform="rotate(84.84, 400, 400)" opacity="0.59"></path><path d="M411.59 344.87C424.07 340.91 433.73 342.65 439.02 348.52 444.08 354.73 444.68 364.61 439.83 376.33 435.13 388.05 426.38 399.44 416.09 408.76 406.13 418.52 394.33 426.78 382.68 431.3 371.03 436.36 361.61 436.32 355.94 431.92 350.4 427.42 348.82 418.43 352.62 406.16 356.55 393.9 365.07 380.82 375.7 369.62 386.31 358.47 399.1 349.31 411.59 344.87" stroke-dasharray="3 1" transform="rotate(88.88, 400, 400)" opacity="0.56"></path><path d="M408 355.68C420.83 353.15 432.23 365.83 428.93 378.24 425.47 387.05 418.86 395.87 411.02 403.19 403.34 410.75 394.28 417.1 385.49 420.5 373.21 424.13 361.09 414.03 363.52 401.57 366.55 392.43 373.02 382.64 381.05 374.23 389.09 365.89 398.71 359.03 408 355.68" stroke-dasharray="8 0" transform="rotate(92.92, 400, 400)" opacity="1.00"></path><path d="M404.17 366.48C416.44 362.38 422.65 369.09 418.03 380.9 413.55 392.7 400.58 405.31 388.75 409.69 376.92 414.6 370.4 409.01 374.42 396.91 378.59 384.81 391.88 371.07 404.17 366.48" stroke-dasharray="4 3" transform="rotate(96.96, 400, 400)" opacity="0.20"></path></g></svg>